#define arrow_ri_width 7
#define arrow_ri_height 11
static char arrow_ri_bits[] = {
 0x00,0x02,0x06,0x0e,0x1e,0x3e,0x1e,0x0e,0x06,0x02,0x00};
