#define arrow_dn_width 11
#define arrow_dn_height 7
static char arrow_dn_bits[] = {
   0x00, 0x00, 0xfe, 0x03, 0xfc, 0x01, 0xf8, 0x00, 0x70, 0x00, 0x20, 0x00,
   0x00, 0x00};
