#define arrow_le_width 7
#define arrow_le_height 11
static char arrow_le_bits[] = {
 0x00,0x20,0x30,0x38,0x3c,0x3e,0x3c,0x38,0x30,0x20,0x00};
