#define bomb_width 20
#define bomb_height 20
static char bomb_bits[] = {
  0x00, 0x00, 0x00, 0x00, 0x00, 0x00, 0x00, 0x00, 0x00, 0x00, 0x0e, 0x00,
  0x00, 0x11, 0x00, 0x80, 0x20, 0x00, 0x80, 0x40, 0x00, 0xe0, 0x43, 0x00,
  0x30, 0x87, 0x00, 0xd8, 0x8f, 0x00, 0xd8, 0x8f, 0x00, 0xf8, 0x8f, 0x01,
  0xf8, 0x0b, 0x03, 0xf8, 0x4f, 0x00, 0xf0, 0x07, 0x05, 0xe0, 0x03, 0x00,
  0x00, 0x00, 0x01, 0x00, 0x00, 0x00, 0x00, 0x00, 0x00, 0x00, 0x00, 0x00,
};
