#define calculator_width 20
#define calculator_height 20
static char calculator_bits[] = {
  0x00, 0x00, 0x00, 0xf0, 0xff, 0x00, 0x10, 0x80, 0x01, 0xd0, 0xbf, 0x01,
  0x10, 0xa0, 0x01, 0xd0, 0xa0, 0x01, 0xd0, 0xbf, 0x01, 0x10, 0x80, 0x01,
  0xd0, 0xb6, 0x01, 0xd0, 0xb6, 0x01, 0x10, 0x80, 0x01, 0xd0, 0xb6, 0x01,
  0xd0, 0xb6, 0x01, 0x10, 0x80, 0x01, 0xd0, 0xb6, 0x01, 0xd0, 0xb6, 0x01,
  0x10, 0x80, 0x01, 0xf0, 0xff, 0x01, 0xe0, 0xff, 0x00, 0x00, 0x00, 0x00,
};
