#define enter_width 20
#define enter_height 20
static char enter_bits[] = {
  0x00, 0x00, 0x00, 0x00, 0x00, 0x00, 0x00, 0x00, 0x00, 0x00, 0x20, 0x00,
  0x00, 0x30, 0x00, 0x00, 0x30, 0x00, 0x00, 0x30, 0x00, 0x00, 0x30, 0x00,
  0x00, 0x30, 0x00, 0x00, 0x30, 0x00, 0x00, 0x31, 0x00, 0x80, 0x31, 0x00,
  0xc0, 0x30, 0x00, 0xe0, 0x3f, 0x00, 0xe0, 0x3f, 0x00, 0xc0, 0x00, 0x00,
  0x80, 0x01, 0x00, 0x00, 0x01, 0x00, 0x00, 0x00, 0x00, 0x00, 0x00, 0x00,
};
