#define hand_point_width 16
#define hand_point_height 16
static char hand_point_bits[] = {
   0x60, 0x00, 0x90, 0x00, 0x90, 0x00, 0x90, 0x00, 0x90, 0x00, 0x90, 0x07,
   0x90, 0x3c, 0x97, 0x64, 0x99, 0xa4, 0x91, 0xa4, 0x12, 0x80, 0x14, 0x80,
   0x04, 0x80, 0x08, 0x80, 0x08, 0x40, 0x10, 0x20 };
