#define hand_point_mask_width 16
#define hand_point_mask_height 16
static char hand_point_mask_bits[] = {
   0x60, 0x00, 0xf0, 0x00, 0xf0, 0x00, 0xf0, 0x00, 0xf0, 0x00, 0xf0, 0x07,
   0xf0, 0x3f, 0xf7, 0x7f, 0xff, 0xff, 0xff, 0xff, 0xfe, 0xff, 0xfc, 0xff,
   0xfc, 0xff, 0xf8, 0xff, 0xf8, 0x7f, 0xf0, 0x3f };
