#define info_width 20
#define info_height 20
static char info_bits[] = {
  0x00, 0x00, 0x00, 0x00, 0x00, 0x00, 0x00, 0x00, 0x00, 0x00, 0x00, 0x00,
  0x00, 0x0f, 0x00, 0x80, 0x19, 0x00, 0xc0, 0x30, 0x00, 0xc0, 0x30, 0x00,
  0x00, 0x30, 0x00, 0x00, 0x18, 0x00, 0x00, 0x0e, 0x00, 0x00, 0x06, 0x00,
  0x00, 0x06, 0x00, 0x00, 0x00, 0x00, 0x00, 0x06, 0x00, 0x00, 0x06, 0x00,
  0x00, 0x00, 0x00, 0x00, 0x00, 0x00, 0x00, 0x00, 0x00, 0x00, 0x00, 0x00,
};
