#define open_width 20
#define open_height 20
static char open_bits[] = {
  0x00, 0x00, 0x00, 0x00, 0x00, 0x00, 0x00, 0x00, 0x00, 0x00, 0x38, 0x00,
  0x00, 0x40, 0x01, 0x00, 0x80, 0x01, 0x70, 0xc0, 0x01, 0x88, 0x1f, 0x00,
  0x08, 0x10, 0x00, 0x08, 0x10, 0x00, 0x08, 0xff, 0x01, 0x88, 0x00, 0x01,
  0x48, 0x80, 0x00, 0x28, 0x47, 0x00, 0x18, 0x20, 0x00, 0xf0, 0x1f, 0x00,
  0x00, 0x00, 0x00, 0x00, 0x00, 0x00, 0x00, 0x00, 0x00, 0x00, 0x00, 0x00,
};
