#define printer_width 20
#define printer_height 20
static char printer_bits[] = {
  0x00, 0x00, 0x00, 0x00, 0x00, 0x00, 0x00, 0x00, 0x00, 0x00, 0x00, 0x00,
  0x80, 0xff, 0x00, 0x40, 0x80, 0x00, 0x40, 0x5f, 0x00, 0x20, 0x40, 0x00,
  0xa0, 0xef, 0x01, 0xf0, 0xbf, 0x02, 0x08, 0x40, 0x03, 0x04, 0xa0, 0x02,
  0xfc, 0x7f, 0x02, 0x04, 0x4c, 0x03, 0x04, 0xc0, 0x03, 0xfc, 0xff, 0x01,
  0xf8, 0xff, 0x00, 0x00, 0x00, 0x00, 0x00, 0x00, 0x00, 0x00, 0x00, 0x00,
};
