#define pulldown_width 9
#define pulldown_height 11
static char pulldown_bits[] = {
   0xff, 0x01, 0x00, 0x00, 0x00, 0x00, 0x7c, 0x00, 0x7c, 0x00, 0x7c, 0x00,
   0xff, 0x01, 0xfe, 0x00, 0x7c, 0x00, 0x38, 0x00, 0x10, 0x00 };
