#define save_width 20
#define save_height 20
static char save_bits[] = {
  0x00, 0x00, 0x00, 0x00, 0x00, 0x00, 0x00, 0x00, 0x00, 0xf0, 0xff, 0x01,
  0x50, 0x40, 0x01, 0x58, 0xc0, 0x01, 0x58, 0x40, 0x01, 0x58, 0x40, 0x01,
  0x58, 0x40, 0x01, 0x98, 0x3f, 0x01, 0x18, 0x00, 0x01, 0x98, 0x7f, 0x01,
  0x98, 0x4f, 0x01, 0x98, 0x4f, 0x01, 0x98, 0x4f, 0x01, 0xf8, 0xff, 0x01,
  0xf0, 0x7f, 0x00, 0x00, 0x00, 0x00, 0x00, 0x00, 0x00, 0x00, 0x00, 0x00,
};
