/* Erzeugt mit Gimp */
#define switch_width 20
#define switch_height 20
static char switch_bits[] = {
   0x00, 0x00, 0x00, 0x00, 0x00, 0x00, 0x00, 0x00, 0x00, 0x00, 0x00, 0x00,
   0x00, 0x06, 0x00, 0x00, 0x06, 0x00, 0x40, 0x26, 0x00, 0xe0, 0x76, 0x00,
   0x70, 0xe6, 0x00, 0x30, 0xc6, 0x00, 0x30, 0xc6, 0x00, 0x30, 0xc6, 0x00,
   0x30, 0xc6, 0x00, 0x70, 0xe0, 0x00, 0xe0, 0x70, 0x00, 0xc0, 0x3f, 0x00,
   0x80, 0x1f, 0x00, 0x00, 0x00, 0x00, 0x00, 0x00, 0x00, 0x00, 0x00, 0x00 };
